HIERARCHY
ROOT root
{
	OFFSET	0	13.1	24.9
	CHANNELS 6  Xposition Yposition Zposition Xrotation Yrotation Zrotation
	JOINT spine_1
	{
		OFFSET	0	9.99999	0
		CHANNELS 3  Xrotation Yrotation Zrotation
		JOINT spine_2
		{
			OFFSET	0	112	-10
			CHANNELS 3  Xrotation Yrotation Zrotation
			JOINT spine_3
			{
				OFFSET	0	206.5	19.3
				CHANNELS 3  Xrotation Yrotation Zrotation
				JOINT spine_4
				{
					OFFSET	0	110.4	14.6
					CHANNELS 3  Xrotation Yrotation Zrotation
					JOINT neck_1
					{
						OFFSET	0	71.8	-50.3
						CHANNELS 3  Xrotation Yrotation Zrotation
						JOINT neck_2
						{
							OFFSET	0	86.2	-25.8
							CHANNELS 3  Xrotation Yrotation Zrotation
							JOINT head_ee
							{
								OFFSET	0	179.8	-8.7
								CHANNELS 3  Xrotation Yrotation Zrotation
								End Site
								{
									OFFSET	1	0	0
								}
							}
						}
					}
					JOINT left_clavicle
					{
						OFFSET	-43.2	22.4	-70.8
						CHANNELS 3  Xrotation Yrotation Zrotation
						JOINT left_shoulder
						{
							OFFSET	-93.9	-5.79999	48.7
							CHANNELS 3  Xrotation Yrotation Zrotation
							JOINT left_elbow
							{
								OFFSET	-291.4	-30.8	15.2
								CHANNELS 3  Xrotation Yrotation Zrotation
								JOINT left_lowarm_twist
								{
									OFFSET	-110.7	-3.89999	13.6
									CHANNELS 3  Xrotation Yrotation Zrotation
									JOINT left_hand
									{
										OFFSET	-110.7	-3.89999	13.6
										CHANNELS 3  Xrotation Yrotation Zrotation
										JOINT left_ee
										{
											OFFSET	-80.8	-5.10001	12.1
											CHANNELS 3  Xrotation Yrotation Zrotation
											End Site
											{
												OFFSET	1	0	0
											}
										}
									}
								}
							}
						}
					}
					JOINT right_clavicle
					{
						OFFSET	43.2	22.4	-70.8
						CHANNELS 3  Xrotation Yrotation Zrotation
						JOINT right_shoulder
						{
							OFFSET	93.9	-5.79999	48.7
							CHANNELS 3  Xrotation Yrotation Zrotation
							JOINT right_elbow
							{
								OFFSET	291.4	-30.8	15.2
								CHANNELS 3  Xrotation Yrotation Zrotation
								JOINT right_lowarm_twist
								{
									OFFSET	110.7	-3.89999	13.6
									CHANNELS 3  Xrotation Yrotation Zrotation
									JOINT right_hand
									{
										OFFSET	110.7	-3.89999	13.6
										CHANNELS 3  Xrotation Yrotation Zrotation
										JOINT right_ee
										{
											OFFSET	80.8	-5.10001	12.1
											CHANNELS 3  Xrotation Yrotation Zrotation
											End Site
											{
												OFFSET	1	0	0
											}
										}
									}
								}
							}
						}
					}
				}
			}
		}
	}
	JOINT left_hip
	{
		OFFSET	-82.8	-127.5	0.300001
		CHANNELS 3  Xrotation Yrotation Zrotation
		JOINT left_knee
		{
			OFFSET	-28.2	-396.7	2.2
			CHANNELS 3  Xrotation Yrotation Zrotation
			JOINT left_ankle
			{
				OFFSET	-11.7	-411.3	35.4
				CHANNELS 3  Xrotation Yrotation Zrotation
				JOINT left_toes
				{
					OFFSET	0	-60	-88.6
					CHANNELS 3  Xrotation Yrotation Zrotation
					JOINT left_foot_ee
					{
						OFFSET	-22.5	-16.5	-42.2
						CHANNELS 3  Xrotation Yrotation Zrotation
						End Site
						{
							OFFSET	1	0	0
						}
					}
				}
			}
		}
	}
	JOINT right_hip
	{
		OFFSET	82.8	-127.5	0.300001
		CHANNELS 3  Xrotation Yrotation Zrotation
		JOINT right_knee
		{
			OFFSET	28.2	-396.7	2.2
			CHANNELS 3  Xrotation Yrotation Zrotation
			JOINT right_ankle
			{
				OFFSET	11.7	-411.3	35.4
				CHANNELS 3  Xrotation Yrotation Zrotation
				JOINT right_toes
				{
					OFFSET	0	-60	-88.6
					CHANNELS 3  Xrotation Yrotation Zrotation
					JOINT right_foot_ee
					{
						OFFSET	22.5	-16.5	-42.2
						CHANNELS 3  Xrotation Yrotation Zrotation
						End Site
						{
							OFFSET	1	0	0
						}
					}
				}
			}
		}
	}
}
MOTION
Frames: 12
Frame Time: 0.02
3594.85 631.947 -299.424 -146.684 -47.4766 -156.876 11.1977 0.39744 1.57245 11.199 0.296589 1.59454 11.2037 0.270805 1.59912 11.2005 0.519928 1.53631 -19.01 4.49614 -6.75605 -19.0853 12.2065 -4.48903 -0.0 0.0 -0.0 -0.809282 20.1046 1.1586 -43.8164 -45.284 56.2666 0.399887 -11.205 0.0392271 5.00883 0.149354 -0.62216 5.32864 6.90721 41.3892 -0.0 0.0 -0.0 11.6294 25.541 -22.5875 -17.775 -8.07516 -72.9049 1.06727 27.8644 -0.264767 -46.6875 3.68878 -4.49854 8.10899 2.92894 -68.565 0.0 0.0 0.0 44.8357 -10.1829 -1.85265 -10.5794 0.288969 1.59558 26.2245 29.1668 -3.75938 11.4425 -0.0 -0.0 -0.0 0.0 -0.0 28.4012 16.0931 1.23776 -30.2121 -0.035886 -4.58296 41.1938 -10.0293 4.97999 21.2474 -0.0 -0.0 0.0 0.0 0.0 
3612.31 626.519 -293.066 -146.886 -46.9149 -157.412 11.2064 0.448703 1.54714 11.2076 0.349358 1.57254 11.2138 0.324219 1.57792 11.2107 0.569325 1.50694 -17.4376 4.71617 -4.55122 -17.536 11.5752 -2.48947 -0.0 0.0 -0.0 -2.66272 21.753 -1.25304 -39.3261 -49.2384 57.8242 0.370625 -10.4037 0.0337416 3.38015 0.106771 -0.418477 5.44555 5.59192 41.936 -0.0 0.0 -0.0 11.6514 26.4295 -22.5383 -22.6464 -3.9144 -73.5893 1.2121 30.9811 -0.335941 -47.5042 3.78222 -4.54605 8.21534 2.7501 -70.8307 0.0 0.0 0.0 46.8937 -5.22857 -2.49621 -16.8732 0.31976 2.56027 30.8308 27.6125 -4.27353 13.143 -0.0 -0.0 -0.0 0.0 -0.0 27.7301 20.1996 1.14892 -31.3944 0.0118639 -4.75812 41.58 -12.6196 5.03866 26.3494 -0.0 -0.0 0.0 0.0 0.0 
3624.8 629.931 -293.554 -145.772 -47.687 -155.305 11.3264 0.335259 1.34325 11.3274 0.249113 1.36186 11.3307 0.230094 1.3652 11.3284 0.442796 1.31175 -16.8162 4.71526 -6.9554 -16.8644 12.9663 -4.81288 -0.0 0.0 -0.0 -2.79108 21.9646 -1.39541 -41.6303 -52.7029 54.3805 0.53923 -14.9558 0.0707797 -6.79388 -0.28833 0.818742 4.99381 12.512 40.2983 -0.0 0.0 -0.0 11.9428 26.7611 -23.1627 -24.7704 -2.22198 -72.8107 1.01617 26.7191 -0.241333 -49.8266 4.05149 -4.67381 7.24079 7.75873 -52.4483 0.0 0.0 0.0 46.1531 -10.9743 -2.32911 -17.7568 0.315595 2.69577 26.7984 27.6953 -3.79212 17.6529 -0.0 -0.0 -0.0 0.0 -0.0 27.6146 18.4159 0.904089 -31.2358 0.00524761 -4.73467 41.4242 -12.6394 5.02558 21.981 -0.0 -0.0 0.0 0.0 0.0 
3640.9 636.44 -296.51 -145.93 -46.5713 -156.266 11.5654 0.382536 1.36103 11.5663 0.295163 1.38261 11.5707 0.281671 1.38542 11.5684 0.496919 1.32357 -17.7154 5.13593 -7.46278 -17.7944 13.9584 -5.03101 -0.0 0.0 -0.0 -2.59697 22.2913 -1.05937 -41.5696 -52.0568 54.6021 0.575912 -15.9231 0.0805456 -9.56447 -0.433474 1.14197 4.3564 14.651 35.643 -0.0 0.0 -0.0 11.8106 25.7094 -22.9816 -27.9085 3.11071 -73.3175 0.997318 26.2908 -0.232922 -52.4735 4.36434 -4.80597 6.36864 7.73781 -43.7462 0.0 0.0 0.0 47.0811 -8.97485 -1.71316 -21.6549 0.272305 3.2922 28.4976 26.9697 -3.98013 8.43486 -0.0 -0.0 -0.0 0.0 -0.0 26.5187 22.9497 1.86902 -29.3062 -0.0700138 -4.44813 40.912 -11.6597 4.97059 25.5404 -0.0 -0.0 0.0 0.0 0.0 
3656.92 641.28 -288.753 -147.295 -46.0484 -157.232 11.5438 0.428961 1.306 11.5447 0.344996 1.33064 11.5502 0.331542 1.33405 11.5481 0.538053 1.26497 -17.7515 6.00048 -7.50082 -17.8909 15.6343 -4.72373 -0.0 0.0 -0.0 -2.47959 20.879 -1.15149 -40.8005 -53.0582 53.64 0.598717 -16.5198 0.0869162 -14.0974 -0.704202 1.65474 4.17488 12.0299 33.485 -0.0 0.0 -0.0 12.8404 26.3807 -25.2637 -31.9234 11.8389 -72.3885 0.834125 22.4503 -0.165545 -53.7081 4.51226 -4.86265 5.09024 6.60123 -33.3847 0.0 0.0 0.0 46.1094 -7.96772 -2.45499 -24.1299 0.223798 3.66888 29.1665 24.9592 -4.00946 8.65321 -0.0 -0.0 -0.0 0.0 -0.0 28.8805 21.4485 1.00342 -35.0414 0.181805 -5.29178 40.149 -7.66746 4.87613 28.7272 -0.0 -0.0 0.0 0.0 0.0 
3666.77 645.308 -283.058 -146.57 -47.2888 -155.474 11.3479 0.399257 1.35128 11.3489 0.31247 1.37394 11.3537 0.293848 1.37805 11.3514 0.507779 1.31436 -17.8415 3.96761 -4.83101 -17.9042 10.2637 -3.00255 -0.0 0.0 -0.0 -1.07662 23.4608 1.24156 -30.5999 -33.4933 56.5772 0.88587 -23.6932 0.185824 -31.7551 -2.11999 3.40786 3.23399 18.2478 28.2232 -0.0 0.0 -0.0 12.253 18.89 -24.5898 -36.0688 23.3453 -68.5415 0.728953 19.8548 -0.127583 -62.4983 5.59499 -5.17214 3.97164 0.503565 -27.4221 0.0 0.0 0.0 46.0821 -2.43577 -3.99364 -23.8288 0.230567 3.62317 28.4913 19.4853 -3.82494 3.0389 -0.0 -0.0 -0.0 0.0 -0.0 29.7686 20.4285 0.387569 -35.8765 0.225487 -5.41242 38.9675 -2.64357 4.77163 36.183 -0.0 -0.0 0.0 0.0 0.0 
3685.45 645.451 -289.164 -146.147 -48.614 -154.155 11.5389 0.142031 0.867688 11.5393 0.0865318 0.874967 11.5395 0.0774783 0.875815 11.5385 0.21482 0.85259 -20.0408 4.32623 -4.10477 -20.1544 10.4213 -1.99606 -0.0 0.0 -0.0 -1.19494 21.5698 0.806149 -36.8493 -46.6873 51.8727 0.911363 -24.2971 0.196191 -29.0894 -1.87244 3.17218 3.33748 19.8197 29.3329 -0.0 0.0 -0.0 12.1546 20.1518 -24.2783 -39.608 30.9643 -67.7056 0.472391 13.1709 -0.0545363 -53.5434 4.49246 -4.85527 4.59303 8.38626 -28.5903 0.0 0.0 0.0 44.6245 -5.78623 -2.26593 -24.0753 0.225044 3.66059 29.7698 21.9215 -4.01337 4.66388 -0.0 -0.0 -0.0 0.0 -0.0 29.9635 17.9379 1.49653 -38.9474 0.401164 -5.85037 37.6417 1.54424 4.6804 37.0764 -0.0 -0.0 0.0 0.0 0.0 
3697.87 647.134 -290.079 -145.299 -49.7714 -152.385 11.4762 0.041382 0.752036 11.4765 -0.00655445 0.753145 11.4756 -0.0151919 0.75302 11.4748 0.103921 0.74597 -19.7641 1.08588 -5.72266 -19.7098 5.02579 -4.87605 -0.0 0.0 -0.0 -0.272749 20.8972 2.03865 -38.5087 -49.7692 47.6752 0.986326 -26.0395 0.228075 -39.5017 -2.89833 4.02464 3.32325 25.5698 30.4125 -0.0 0.0 -0.0 12.691 21.1377 -25.4417 -47.1932 39.8708 -65.909 0.445928 12.4568 -0.0486672 -55.5458 4.73458 -4.94106 3.49827 8.7093 -20.3321 0.0 0.0 0.0 44.4762 -6.84594 -2.05093 -25.073 0.201038 3.81182 28.024 20.2305 -3.78309 -2.13258 0.0 0.0 -0.0 0.0 -0.0 34.5091 14.2627 1.55537 -45.7026 0.868829 -6.77741 36.299 8.74043 4.66344 37.7165 -0.0 -0.0 0.0 0.0 0.0 
3704.11 648.552 -288.526 -145.363 -49.0133 -151.655 11.4909 0.0710874 0.602636 11.4911 0.0325967 0.605938 11.4909 0.0258095 0.606265 11.4904 0.121232 0.594581 -20.8392 1.24294 -3.79505 -20.8281 4.27079 -2.98708 -0.0 0.0 -0.0 0.733019 20.5668 3.45915 -32.6527 -41.767 50.2422 1.16913 -30.0763 0.314112 -41.9487 -3.16075 4.19708 4.42747 23.2571 37.9825 -0.0 0.0 -0.0 12.0521 16.6505 -24.2504 -53.3231 48.8866 -60.4416 0.383878 10.7671 -0.0361762 -60.2208 5.31023 -5.108 2.66886 13.8546 -12.1344 0.0 0.0 0.0 44.641 -8.39829 -2.54561 -26.332 0.166993 4.00203 29.6704 22.9344 -4.02262 -2.32658 0.0 0.0 -0.0 0.0 -0.0 39.2266 22.4254 -3.32178 -49.6026 1.18774 -7.28591 35.7571 11.9039 4.68377 36.9282 -0.0 -0.0 0.0 0.0 0.0 
3711.72 650.286 -281.778 -145.334 -49.2859 -150.442 11.5279 0.032227 0.380744 11.5279 0.00793413 0.382023 11.5278 0.00390066 0.382085 11.5276 0.0641945 0.376674 -21.1513 1.7586 -4.48909 -21.1458 5.58408 -3.39815 -0.0 0.0 -0.0 0.434125 19.5578 2.92471 -33.9918 -45.8808 49.2647 1.16731 -30.0376 0.3132 -50.213 -4.09678 4.694 3.59602 23.9154 31.9947 -0.0 0.0 -0.0 12.2111 17.6437 -24.5659 -57.6763 55.306 -60.2336 0.314137 8.84529 -0.0242965 -64.3201 5.82438 -5.21523 1.07538 5.30147 -5.00931 0.0 0.0 0.0 43.5198 -10.1892 -3.2922 -26.3797 0.165621 4.00922 27.3064 23.2703 -3.75365 -1.59756 0.0 0.0 -0.0 0.0 -0.0 40.5711 20.3589 -4.28003 -50.7055 1.28416 -7.42572 36.9968 17.692 4.98204 37.3552 -0.0 -0.0 0.0 0.0 0.0 
3726.87 651.772 -288.69 -144.791 -49.4068 -149.657 11.488 0.095338 0.0401737 11.488 0.0925884 0.0461589 11.488 0.0920632 0.0471976 11.488 0.0983618 0.0320656 -20.3184 1.3517 -2.64293 -20.3224 3.93497 -1.88399 -0.0 0.0 -0.0 2.13937 22.09 5.58097 -29.5051 -38.8168 49.0986 1.54667 -37.4558 0.524387 -55.3923 -4.71592 4.93479 3.32881 29.8176 31.0906 -0.0 0.0 -0.0 11.2515 10.9755 -22.5909 -67.5694 54.3306 -50.0321 0.374125 10.4997 -0.0343766 -61.8214 5.5101 -5.15426 2.04081 13.5964 -7.96915 0.0 0.0 0.0 43.3365 -11.0509 -2.01048 -26.206 0.170588 3.98302 32.7612 24.1412 -4.39712 -7.17194 0.0 0.0 -0.0 0.0 -0.0 42.845 20.3618 -3.56007 -52.5569 1.45207 -7.65624 35.6308 17.8351 4.85318 34.186 -0.0 -0.0 0.0 0.0 0.0 
3732.63 651.805 -288.2 -144.505 -49.1757 -149.073 11.5238 0.0245133 -0.179077 11.5238 0.0358587 -0.177154 11.5237 0.0377399 -0.176763 11.5236 0.00934993 -0.180505 -21.0812 1.64633 -3.22443 -21.0886 4.75388 -2.27483 -0.0 0.0 -0.0 2.23055 21.3209 5.67391 -29.1336 -45.7971 47.1295 1.27488 -32.2726 0.368865 -49.8589 -4.05526 4.6755 4.34103 26.0806 37.6903 -0.0 0.0 -0.0 11.6298 14.6601 -23.3658 -63.0591 55.5351 -56.5339 0.195306 5.52625 -0.00942603 -62.5731 5.60438 -5.17405 0.321667 11.1593 2.57314 0.0 0.0 0.0 43.5808 -13.1006 -1.84474 -26.7997 0.153279 4.0725 32.0891 26.4096 -4.38308 -4.50635 0.0 0.0 -0.0 0.0 -0.0 44.575 21.8419 -5.04056 -53.0348 1.49662 -7.71486 33.8857 16.1817 4.6195 37.5947 -0.0 -0.0 0.0 0.0 0.0 
